<?xml version="1.0" encoding="utf-8" standalone="no"?>
<!DOCTYPE svg PUBLIC "-//W3C//DTD SVG 1.1//EN"
  "http://www.w3.org/Graphics/SVG/1.1/DTD/svg11.dtd">
<svg xmlns:xlink="http://www.w3.org/1999/xlink" width="482.4pt" height="223.92pt" viewBox="0 0 482.4 223.92" xmlns="http://www.w3.org/2000/svg" version="1.1">
 <metadata>
  <rdf:RDF xmlns:dc="http://purl.org/dc/elements/1.1/" xmlns:cc="http://creativecommons.org/ns#" xmlns:rdf="http://www.w3.org/1999/02/22-rdf-syntax-ns#">
   <cc:Work>
    <dc:type rdf:resource="http://purl.org/dc/dcmitype/StillImage"/>
    <dc:date>2024-06-24T20:27:11.074159</dc:date>
    <dc:format>image/svg+xml</dc:format>
    <dc:creator>
     <cc:Agent>
      <dc:title>Matplotlib v3.8.3, https://matplotlib.org/</dc:title>
     </cc:Agent>
    </dc:creator>
   </cc:Work>
  </rdf:RDF>
 </metadata>
 <defs>
  <style type="text/css">*{stroke-linejoin: round; stroke-linecap: butt}</style>
 </defs>
 <g id="figure_1">
  <g id="patch_1">
   <path d="M 0 223.92 
L 482.4 223.92 
L 482.4 0 
L 0 0 
z
" style="fill: #ffffff"/>
  </g>
  <g id="axes_1">
   <g id="patch_2">
    <path d="M 51.08375 181.96 
L 471.6 181.96 
L 471.6 26.2275 
L 51.08375 26.2275 
z
" style="fill: #ffffff"/>
   </g>
   <g id="matplotlib.axis_1">
    <g id="xtick_1">
     <g id="line2d_1">
      <defs>
       <path id="md768961ea1" d="M 0 0 
L 0 3.5 
" style="stroke: #000000; stroke-width: 0.8"/>
      </defs>
      <g>
       <use xlink:href="#md768961ea1" x="51.08375" y="181.96" style="stroke: #000000; stroke-width: 0.8"/>
      </g>
     </g>
     <g id="text_1">
      <!-- 0 -->
      <g transform="translate(47.9025 196.558437) scale(0.1 -0.1)">
       <defs>
        <path id="DejaVuSans-30" d="M 2034 4250 
Q 1547 4250 1301 3770 
Q 1056 3291 1056 2328 
Q 1056 1369 1301 889 
Q 1547 409 2034 409 
Q 2525 409 2770 889 
Q 3016 1369 3016 2328 
Q 3016 3291 2770 3770 
Q 2525 4250 2034 4250 
z
M 2034 4750 
Q 2819 4750 3233 4129 
Q 3647 3509 3647 2328 
Q 3647 1150 3233 529 
Q 2819 -91 2034 -91 
Q 1250 -91 836 529 
Q 422 1150 422 2328 
Q 422 3509 836 4129 
Q 1250 4750 2034 4750 
z
" transform="scale(0.015625)"/>
       </defs>
       <use xlink:href="#DejaVuSans-30"/>
      </g>
     </g>
    </g>
    <g id="xtick_2">
     <g id="line2d_2">
      <g>
       <use xlink:href="#md768961ea1" x="107.340105" y="181.96" style="stroke: #000000; stroke-width: 0.8"/>
      </g>
     </g>
     <g id="text_2">
      <!-- 20 -->
      <g transform="translate(100.977605 196.558437) scale(0.1 -0.1)">
       <defs>
        <path id="DejaVuSans-32" d="M 1228 531 
L 3431 531 
L 3431 0 
L 469 0 
L 469 531 
Q 828 903 1448 1529 
Q 2069 2156 2228 2338 
Q 2531 2678 2651 2914 
Q 2772 3150 2772 3378 
Q 2772 3750 2511 3984 
Q 2250 4219 1831 4219 
Q 1534 4219 1204 4116 
Q 875 4013 500 3803 
L 500 4441 
Q 881 4594 1212 4672 
Q 1544 4750 1819 4750 
Q 2544 4750 2975 4387 
Q 3406 4025 3406 3419 
Q 3406 3131 3298 2873 
Q 3191 2616 2906 2266 
Q 2828 2175 2409 1742 
Q 1991 1309 1228 531 
z
" transform="scale(0.015625)"/>
       </defs>
       <use xlink:href="#DejaVuSans-32"/>
       <use xlink:href="#DejaVuSans-30" x="63.623047"/>
      </g>
     </g>
    </g>
    <g id="xtick_3">
     <g id="line2d_3">
      <g>
       <use xlink:href="#md768961ea1" x="163.596459" y="181.96" style="stroke: #000000; stroke-width: 0.8"/>
      </g>
     </g>
     <g id="text_3">
      <!-- 40 -->
      <g transform="translate(157.233959 196.558437) scale(0.1 -0.1)">
       <defs>
        <path id="DejaVuSans-34" d="M 2419 4116 
L 825 1625 
L 2419 1625 
L 2419 4116 
z
M 2253 4666 
L 3047 4666 
L 3047 1625 
L 3713 1625 
L 3713 1100 
L 3047 1100 
L 3047 0 
L 2419 0 
L 2419 1100 
L 313 1100 
L 313 1709 
L 2253 4666 
z
" transform="scale(0.015625)"/>
       </defs>
       <use xlink:href="#DejaVuSans-34"/>
       <use xlink:href="#DejaVuSans-30" x="63.623047"/>
      </g>
     </g>
    </g>
    <g id="xtick_4">
     <g id="line2d_4">
      <g>
       <use xlink:href="#md768961ea1" x="219.852814" y="181.96" style="stroke: #000000; stroke-width: 0.8"/>
      </g>
     </g>
     <g id="text_4">
      <!-- 60 -->
      <g transform="translate(213.490314 196.558437) scale(0.1 -0.1)">
       <defs>
        <path id="DejaVuSans-36" d="M 2113 2584 
Q 1688 2584 1439 2293 
Q 1191 2003 1191 1497 
Q 1191 994 1439 701 
Q 1688 409 2113 409 
Q 2538 409 2786 701 
Q 3034 994 3034 1497 
Q 3034 2003 2786 2293 
Q 2538 2584 2113 2584 
z
M 3366 4563 
L 3366 3988 
Q 3128 4100 2886 4159 
Q 2644 4219 2406 4219 
Q 1781 4219 1451 3797 
Q 1122 3375 1075 2522 
Q 1259 2794 1537 2939 
Q 1816 3084 2150 3084 
Q 2853 3084 3261 2657 
Q 3669 2231 3669 1497 
Q 3669 778 3244 343 
Q 2819 -91 2113 -91 
Q 1303 -91 875 529 
Q 447 1150 447 2328 
Q 447 3434 972 4092 
Q 1497 4750 2381 4750 
Q 2619 4750 2861 4703 
Q 3103 4656 3366 4563 
z
" transform="scale(0.015625)"/>
       </defs>
       <use xlink:href="#DejaVuSans-36"/>
       <use xlink:href="#DejaVuSans-30" x="63.623047"/>
      </g>
     </g>
    </g>
    <g id="xtick_5">
     <g id="line2d_5">
      <g>
       <use xlink:href="#md768961ea1" x="276.109168" y="181.96" style="stroke: #000000; stroke-width: 0.8"/>
      </g>
     </g>
     <g id="text_5">
      <!-- 80 -->
      <g transform="translate(269.746668 196.558437) scale(0.1 -0.1)">
       <defs>
        <path id="DejaVuSans-38" d="M 2034 2216 
Q 1584 2216 1326 1975 
Q 1069 1734 1069 1313 
Q 1069 891 1326 650 
Q 1584 409 2034 409 
Q 2484 409 2743 651 
Q 3003 894 3003 1313 
Q 3003 1734 2745 1975 
Q 2488 2216 2034 2216 
z
M 1403 2484 
Q 997 2584 770 2862 
Q 544 3141 544 3541 
Q 544 4100 942 4425 
Q 1341 4750 2034 4750 
Q 2731 4750 3128 4425 
Q 3525 4100 3525 3541 
Q 3525 3141 3298 2862 
Q 3072 2584 2669 2484 
Q 3125 2378 3379 2068 
Q 3634 1759 3634 1313 
Q 3634 634 3220 271 
Q 2806 -91 2034 -91 
Q 1263 -91 848 271 
Q 434 634 434 1313 
Q 434 1759 690 2068 
Q 947 2378 1403 2484 
z
M 1172 3481 
Q 1172 3119 1398 2916 
Q 1625 2713 2034 2713 
Q 2441 2713 2670 2916 
Q 2900 3119 2900 3481 
Q 2900 3844 2670 4047 
Q 2441 4250 2034 4250 
Q 1625 4250 1398 4047 
Q 1172 3844 1172 3481 
z
" transform="scale(0.015625)"/>
       </defs>
       <use xlink:href="#DejaVuSans-38"/>
       <use xlink:href="#DejaVuSans-30" x="63.623047"/>
      </g>
     </g>
    </g>
    <g id="xtick_6">
     <g id="line2d_6">
      <g>
       <use xlink:href="#md768961ea1" x="332.365523" y="181.96" style="stroke: #000000; stroke-width: 0.8"/>
      </g>
     </g>
     <g id="text_6">
      <!-- 100 -->
      <g transform="translate(322.821773 196.558437) scale(0.1 -0.1)">
       <defs>
        <path id="DejaVuSans-31" d="M 794 531 
L 1825 531 
L 1825 4091 
L 703 3866 
L 703 4441 
L 1819 4666 
L 2450 4666 
L 2450 531 
L 3481 531 
L 3481 0 
L 794 0 
L 794 531 
z
" transform="scale(0.015625)"/>
       </defs>
       <use xlink:href="#DejaVuSans-31"/>
       <use xlink:href="#DejaVuSans-30" x="63.623047"/>
       <use xlink:href="#DejaVuSans-30" x="127.246094"/>
      </g>
     </g>
    </g>
    <g id="xtick_7">
     <g id="line2d_7">
      <g>
       <use xlink:href="#md768961ea1" x="388.621877" y="181.96" style="stroke: #000000; stroke-width: 0.8"/>
      </g>
     </g>
     <g id="text_7">
      <!-- 120 -->
      <g transform="translate(379.078127 196.558437) scale(0.1 -0.1)">
       <use xlink:href="#DejaVuSans-31"/>
       <use xlink:href="#DejaVuSans-32" x="63.623047"/>
       <use xlink:href="#DejaVuSans-30" x="127.246094"/>
      </g>
     </g>
    </g>
    <g id="xtick_8">
     <g id="line2d_8">
      <g>
       <use xlink:href="#md768961ea1" x="444.878232" y="181.96" style="stroke: #000000; stroke-width: 0.8"/>
      </g>
     </g>
     <g id="text_8">
      <!-- 140 -->
      <g transform="translate(435.334482 196.558437) scale(0.1 -0.1)">
       <use xlink:href="#DejaVuSans-31"/>
       <use xlink:href="#DejaVuSans-34" x="63.623047"/>
       <use xlink:href="#DejaVuSans-30" x="127.246094"/>
      </g>
     </g>
    </g>
    <g id="text_9">
     <!-- Время, c -->
     <g transform="translate(238.953594 210.236562) scale(0.1 -0.1)">
      <defs>
       <path id="DejaVuSans-412" d="M 1259 2228 
L 1259 519 
L 2272 519 
Q 2781 519 3026 730 
Q 3272 941 3272 1375 
Q 3272 1813 3026 2020 
Q 2781 2228 2272 2228 
L 1259 2228 
z
M 1259 4147 
L 1259 2741 
L 2194 2741 
Q 2656 2741 2882 2914 
Q 3109 3088 3109 3444 
Q 3109 3797 2882 3972 
Q 2656 4147 2194 4147 
L 1259 4147 
z
M 628 4666 
L 2241 4666 
Q 2963 4666 3353 4366 
Q 3744 4066 3744 3513 
Q 3744 3084 3544 2831 
Q 3344 2578 2956 2516 
Q 3422 2416 3680 2098 
Q 3938 1781 3938 1306 
Q 3938 681 3513 340 
Q 3088 0 2303 0 
L 628 0 
L 628 4666 
z
" transform="scale(0.015625)"/>
       <path id="DejaVuSans-440" d="M 1159 525 
L 1159 -1331 
L 581 -1331 
L 581 3500 
L 1159 3500 
L 1159 2969 
Q 1341 3281 1617 3432 
Q 1894 3584 2278 3584 
Q 2916 3584 3314 3078 
Q 3713 2572 3713 1747 
Q 3713 922 3314 415 
Q 2916 -91 2278 -91 
Q 1894 -91 1617 61 
Q 1341 213 1159 525 
z
M 3116 1747 
Q 3116 2381 2855 2742 
Q 2594 3103 2138 3103 
Q 1681 3103 1420 2742 
Q 1159 2381 1159 1747 
Q 1159 1113 1420 752 
Q 1681 391 2138 391 
Q 2594 391 2855 752 
Q 3116 1113 3116 1747 
z
" transform="scale(0.015625)"/>
       <path id="DejaVuSans-435" d="M 3597 1894 
L 3597 1613 
L 953 1613 
Q 991 1019 1311 708 
Q 1631 397 2203 397 
Q 2534 397 2845 478 
Q 3156 559 3463 722 
L 3463 178 
Q 3153 47 2828 -22 
Q 2503 -91 2169 -91 
Q 1331 -91 842 396 
Q 353 884 353 1716 
Q 353 2575 817 3079 
Q 1281 3584 2069 3584 
Q 2775 3584 3186 3129 
Q 3597 2675 3597 1894 
z
M 3022 2063 
Q 3016 2534 2758 2815 
Q 2500 3097 2075 3097 
Q 1594 3097 1305 2825 
Q 1016 2553 972 2059 
L 3022 2063 
z
" transform="scale(0.015625)"/>
       <path id="DejaVuSans-43c" d="M 581 3500 
L 1422 3500 
L 2416 1156 
L 3413 3500 
L 4247 3500 
L 4247 0 
L 3669 0 
L 3669 2950 
L 2703 672 
L 2128 672 
L 1159 2950 
L 1159 0 
L 581 0 
L 581 3500 
z
" transform="scale(0.015625)"/>
       <path id="DejaVuSans-44f" d="M 1181 2491 
Q 1181 2231 1381 2084 
Q 1581 1938 1953 1938 
L 2728 1938 
L 2728 3041 
L 1953 3041 
Q 1581 3041 1381 2897 
Q 1181 2753 1181 2491 
z
M 363 0 
L 1431 1534 
Q 1069 1616 828 1830 
Q 588 2044 588 2491 
Q 588 2997 923 3248 
Q 1259 3500 1938 3500 
L 3306 3500 
L 3306 0 
L 2728 0 
L 2728 1478 
L 2013 1478 
L 981 0 
L 363 0 
z
" transform="scale(0.015625)"/>
       <path id="DejaVuSans-2c" d="M 750 794 
L 1409 794 
L 1409 256 
L 897 -744 
L 494 -744 
L 750 256 
L 750 794 
z
" transform="scale(0.015625)"/>
       <path id="DejaVuSans-20" transform="scale(0.015625)"/>
       <path id="DejaVuSans-63" d="M 3122 3366 
L 3122 2828 
Q 2878 2963 2633 3030 
Q 2388 3097 2138 3097 
Q 1578 3097 1268 2742 
Q 959 2388 959 1747 
Q 959 1106 1268 751 
Q 1578 397 2138 397 
Q 2388 397 2633 464 
Q 2878 531 3122 666 
L 3122 134 
Q 2881 22 2623 -34 
Q 2366 -91 2075 -91 
Q 1284 -91 818 406 
Q 353 903 353 1747 
Q 353 2603 823 3093 
Q 1294 3584 2113 3584 
Q 2378 3584 2631 3529 
Q 2884 3475 3122 3366 
z
" transform="scale(0.015625)"/>
      </defs>
      <use xlink:href="#DejaVuSans-412"/>
      <use xlink:href="#DejaVuSans-440" x="68.603516"/>
      <use xlink:href="#DejaVuSans-435" x="132.080078"/>
      <use xlink:href="#DejaVuSans-43c" x="193.603516"/>
      <use xlink:href="#DejaVuSans-44f" x="269.042969"/>
      <use xlink:href="#DejaVuSans-2c" x="329.199219"/>
      <use xlink:href="#DejaVuSans-20" x="360.986328"/>
      <use xlink:href="#DejaVuSans-63" x="392.773438"/>
     </g>
    </g>
   </g>
   <g id="matplotlib.axis_2">
    <g id="ytick_1">
     <g id="line2d_9">
      <defs>
       <path id="m7552523696" d="M 0 0 
L -3.5 0 
" style="stroke: #000000; stroke-width: 0.8"/>
      </defs>
      <g>
       <use xlink:href="#m7552523696" x="51.08375" y="158.619625" style="stroke: #000000; stroke-width: 0.8"/>
      </g>
     </g>
     <g id="text_10">
      <!-- 100 -->
      <g transform="translate(24.99625 162.418844) scale(0.1 -0.1)">
       <use xlink:href="#DejaVuSans-31"/>
       <use xlink:href="#DejaVuSans-30" x="63.623047"/>
       <use xlink:href="#DejaVuSans-30" x="127.246094"/>
      </g>
     </g>
    </g>
    <g id="ytick_2">
     <g id="line2d_10">
      <g>
       <use xlink:href="#m7552523696" x="51.08375" y="134.281364" style="stroke: #000000; stroke-width: 0.8"/>
      </g>
     </g>
     <g id="text_11">
      <!-- 200 -->
      <g transform="translate(24.99625 138.080582) scale(0.1 -0.1)">
       <use xlink:href="#DejaVuSans-32"/>
       <use xlink:href="#DejaVuSans-30" x="63.623047"/>
       <use xlink:href="#DejaVuSans-30" x="127.246094"/>
      </g>
     </g>
    </g>
    <g id="ytick_3">
     <g id="line2d_11">
      <g>
       <use xlink:href="#m7552523696" x="51.08375" y="109.943102" style="stroke: #000000; stroke-width: 0.8"/>
      </g>
     </g>
     <g id="text_12">
      <!-- 300 -->
      <g transform="translate(24.99625 113.742321) scale(0.1 -0.1)">
       <defs>
        <path id="DejaVuSans-33" d="M 2597 2516 
Q 3050 2419 3304 2112 
Q 3559 1806 3559 1356 
Q 3559 666 3084 287 
Q 2609 -91 1734 -91 
Q 1441 -91 1130 -33 
Q 819 25 488 141 
L 488 750 
Q 750 597 1062 519 
Q 1375 441 1716 441 
Q 2309 441 2620 675 
Q 2931 909 2931 1356 
Q 2931 1769 2642 2001 
Q 2353 2234 1838 2234 
L 1294 2234 
L 1294 2753 
L 1863 2753 
Q 2328 2753 2575 2939 
Q 2822 3125 2822 3475 
Q 2822 3834 2567 4026 
Q 2313 4219 1838 4219 
Q 1578 4219 1281 4162 
Q 984 4106 628 3988 
L 628 4550 
Q 988 4650 1302 4700 
Q 1616 4750 1894 4750 
Q 2613 4750 3031 4423 
Q 3450 4097 3450 3541 
Q 3450 3153 3228 2886 
Q 3006 2619 2597 2516 
z
" transform="scale(0.015625)"/>
       </defs>
       <use xlink:href="#DejaVuSans-33"/>
       <use xlink:href="#DejaVuSans-30" x="63.623047"/>
       <use xlink:href="#DejaVuSans-30" x="127.246094"/>
      </g>
     </g>
    </g>
    <g id="ytick_4">
     <g id="line2d_12">
      <g>
       <use xlink:href="#m7552523696" x="51.08375" y="85.604841" style="stroke: #000000; stroke-width: 0.8"/>
      </g>
     </g>
     <g id="text_13">
      <!-- 400 -->
      <g transform="translate(24.99625 89.40406) scale(0.1 -0.1)">
       <use xlink:href="#DejaVuSans-34"/>
       <use xlink:href="#DejaVuSans-30" x="63.623047"/>
       <use xlink:href="#DejaVuSans-30" x="127.246094"/>
      </g>
     </g>
    </g>
    <g id="ytick_5">
     <g id="line2d_13">
      <g>
       <use xlink:href="#m7552523696" x="51.08375" y="61.26658" style="stroke: #000000; stroke-width: 0.8"/>
      </g>
     </g>
     <g id="text_14">
      <!-- 500 -->
      <g transform="translate(24.99625 65.065799) scale(0.1 -0.1)">
       <defs>
        <path id="DejaVuSans-35" d="M 691 4666 
L 3169 4666 
L 3169 4134 
L 1269 4134 
L 1269 2991 
Q 1406 3038 1543 3061 
Q 1681 3084 1819 3084 
Q 2600 3084 3056 2656 
Q 3513 2228 3513 1497 
Q 3513 744 3044 326 
Q 2575 -91 1722 -91 
Q 1428 -91 1123 -41 
Q 819 9 494 109 
L 494 744 
Q 775 591 1075 516 
Q 1375 441 1709 441 
Q 2250 441 2565 725 
Q 2881 1009 2881 1497 
Q 2881 1984 2565 2268 
Q 2250 2553 1709 2553 
Q 1456 2553 1204 2497 
Q 953 2441 691 2322 
L 691 4666 
z
" transform="scale(0.015625)"/>
       </defs>
       <use xlink:href="#DejaVuSans-35"/>
       <use xlink:href="#DejaVuSans-30" x="63.623047"/>
       <use xlink:href="#DejaVuSans-30" x="127.246094"/>
      </g>
     </g>
    </g>
    <g id="ytick_6">
     <g id="line2d_14">
      <g>
       <use xlink:href="#m7552523696" x="51.08375" y="36.928319" style="stroke: #000000; stroke-width: 0.8"/>
      </g>
     </g>
     <g id="text_15">
      <!-- 600 -->
      <g transform="translate(24.99625 40.727538) scale(0.1 -0.1)">
       <use xlink:href="#DejaVuSans-36"/>
       <use xlink:href="#DejaVuSans-30" x="63.623047"/>
       <use xlink:href="#DejaVuSans-30" x="127.246094"/>
      </g>
     </g>
    </g>
    <g id="text_16">
     <!-- Средняя площадь области, мкм² -->
     <g transform="translate(18.916563 190.517969) rotate(-90) scale(0.1 -0.1)">
      <defs>
       <path id="DejaVuSans-421" d="M 4122 4306 
L 4122 3641 
Q 3803 3938 3442 4084 
Q 3081 4231 2675 4231 
Q 1875 4231 1450 3742 
Q 1025 3253 1025 2328 
Q 1025 1406 1450 917 
Q 1875 428 2675 428 
Q 3081 428 3442 575 
Q 3803 722 4122 1019 
L 4122 359 
Q 3791 134 3420 21 
Q 3050 -91 2638 -91 
Q 1578 -91 968 557 
Q 359 1206 359 2328 
Q 359 3453 968 4101 
Q 1578 4750 2638 4750 
Q 3056 4750 3426 4639 
Q 3797 4528 4122 4306 
z
" transform="scale(0.015625)"/>
       <path id="DejaVuSans-434" d="M 1384 459 
L 3053 459 
L 3053 3041 
L 1844 3041 
L 1844 2603 
Q 1844 1316 1475 628 
L 1384 459 
z
M 550 459 
Q 834 584 959 850 
Q 1266 1509 1266 2838 
L 1266 3500 
L 3631 3500 
L 3631 459 
L 4091 459 
L 4091 -884 
L 3631 -884 
L 3631 0 
L 794 0 
L 794 -884 
L 334 -884 
L 334 459 
L 550 459 
z
" transform="scale(0.015625)"/>
       <path id="DejaVuSans-43d" d="M 581 3500 
L 1159 3500 
L 1159 2072 
L 3025 2072 
L 3025 3500 
L 3603 3500 
L 3603 0 
L 3025 0 
L 3025 1613 
L 1159 1613 
L 1159 0 
L 581 0 
L 581 3500 
z
" transform="scale(0.015625)"/>
       <path id="DejaVuSans-43f" d="M 3603 3500 
L 3603 0 
L 3025 0 
L 3025 3041 
L 1159 3041 
L 1159 0 
L 581 0 
L 581 3500 
L 3603 3500 
z
" transform="scale(0.015625)"/>
       <path id="DejaVuSans-43b" d="M 238 0 
L 238 478 
Q 806 566 981 959 
Q 1194 1513 1194 2928 
L 1194 3500 
L 3559 3500 
L 3559 0 
L 2984 0 
L 2984 3041 
L 1769 3041 
L 1769 2694 
Q 1769 1344 1494 738 
Q 1200 91 238 0 
z
" transform="scale(0.015625)"/>
       <path id="DejaVuSans-43e" d="M 1959 3097 
Q 1497 3097 1228 2736 
Q 959 2375 959 1747 
Q 959 1119 1226 758 
Q 1494 397 1959 397 
Q 2419 397 2687 759 
Q 2956 1122 2956 1747 
Q 2956 2369 2687 2733 
Q 2419 3097 1959 3097 
z
M 1959 3584 
Q 2709 3584 3137 3096 
Q 3566 2609 3566 1747 
Q 3566 888 3137 398 
Q 2709 -91 1959 -91 
Q 1206 -91 779 398 
Q 353 888 353 1747 
Q 353 2609 779 3096 
Q 1206 3584 1959 3584 
z
" transform="scale(0.015625)"/>
       <path id="DejaVuSans-449" d="M 5275 0 
L 581 0 
L 581 3500 
L 1159 3500 
L 1159 459 
L 2638 459 
L 2638 3500 
L 3216 3500 
L 3216 459 
L 4697 459 
L 4697 3500 
L 5275 3500 
L 5275 459 
L 5734 459 
L 5734 -884 
L 5275 -884 
L 5275 0 
z
" transform="scale(0.015625)"/>
       <path id="DejaVuSans-430" d="M 2194 1759 
Q 1497 1759 1228 1600 
Q 959 1441 959 1056 
Q 959 750 1161 570 
Q 1363 391 1709 391 
Q 2188 391 2477 730 
Q 2766 1069 2766 1631 
L 2766 1759 
L 2194 1759 
z
M 3341 1997 
L 3341 0 
L 2766 0 
L 2766 531 
Q 2569 213 2275 61 
Q 1981 -91 1556 -91 
Q 1019 -91 701 211 
Q 384 513 384 1019 
Q 384 1609 779 1909 
Q 1175 2209 1959 2209 
L 2766 2209 
L 2766 2266 
Q 2766 2663 2505 2880 
Q 2244 3097 1772 3097 
Q 1472 3097 1187 3025 
Q 903 2953 641 2809 
L 641 3341 
Q 956 3463 1253 3523 
Q 1550 3584 1831 3584 
Q 2591 3584 2966 3190 
Q 3341 2797 3341 1997 
z
" transform="scale(0.015625)"/>
       <path id="DejaVuSans-44c" d="M 2781 1038 
Q 2781 1319 2576 1466 
Q 2372 1613 1978 1613 
L 1159 1613 
L 1159 459 
L 1978 459 
Q 2372 459 2576 607 
Q 2781 756 2781 1038 
z
M 581 3500 
L 1159 3500 
L 1159 2072 
L 2003 2072 
Q 2672 2072 3033 1817 
Q 3394 1563 3394 1038 
Q 3394 513 3033 256 
Q 2672 0 2003 0 
L 581 0 
L 581 3500 
z
" transform="scale(0.015625)"/>
       <path id="DejaVuSans-431" d="M 1991 3584 
Q 2741 3584 3169 3096 
Q 3597 2609 3597 1747 
Q 3597 888 3169 398 
Q 2741 -91 1991 -91 
Q 1238 -91 822 384 
Q 406 859 384 1747 
L 366 2463 
Q 350 2834 350 2963 
Q 350 3463 531 3831 
Q 816 4409 1308 4659 
Q 1800 4909 2625 4916 
Q 3006 4919 3175 4972 
L 3334 4516 
Q 3181 4453 3041 4450 
L 2259 4397 
Q 1866 4369 1628 4231 
Q 1006 3866 947 3388 
L 925 3213 
Q 1331 3584 1991 3584 
z
M 1991 3097 
Q 1528 3097 1259 2736 
Q 991 2375 991 1747 
Q 991 1119 1258 758 
Q 1525 397 1991 397 
Q 2450 397 2719 759 
Q 2988 1122 2988 1747 
Q 2988 2369 2719 2733 
Q 2450 3097 1991 3097 
z
" transform="scale(0.015625)"/>
       <path id="DejaVuSans-441" d="M 3122 3366 
L 3122 2828 
Q 2878 2963 2633 3030 
Q 2388 3097 2138 3097 
Q 1578 3097 1268 2742 
Q 959 2388 959 1747 
Q 959 1106 1268 751 
Q 1578 397 2138 397 
Q 2388 397 2633 464 
Q 2878 531 3122 666 
L 3122 134 
Q 2881 22 2623 -34 
Q 2366 -91 2075 -91 
Q 1284 -91 818 406 
Q 353 903 353 1747 
Q 353 2603 823 3093 
Q 1294 3584 2113 3584 
Q 2378 3584 2631 3529 
Q 2884 3475 3122 3366 
z
" transform="scale(0.015625)"/>
       <path id="DejaVuSans-442" d="M 188 3500 
L 3541 3500 
L 3541 3041 
L 2147 3041 
L 2147 0 
L 1581 0 
L 1581 3041 
L 188 3041 
L 188 3500 
z
" transform="scale(0.015625)"/>
       <path id="DejaVuSans-438" d="M 3578 3500 
L 3578 0 
L 3006 0 
L 3006 2809 
L 1319 0 
L 581 0 
L 581 3500 
L 1153 3500 
L 1153 697 
L 2838 3500 
L 3578 3500 
z
" transform="scale(0.015625)"/>
       <path id="DejaVuSans-43a" d="M 581 3500 
L 1153 3500 
L 1153 1856 
L 2775 3500 
L 3481 3500 
L 2144 2147 
L 3653 0 
L 3009 0 
L 1769 1766 
L 1153 1141 
L 1153 0 
L 581 0 
L 581 3500 
z
" transform="scale(0.015625)"/>
       <path id="DejaVuSans-b2" d="M 838 2444 
L 2163 2444 
L 2163 2088 
L 294 2088 
L 294 2431 
Q 400 2528 597 2703 
Q 1672 3656 1672 3950 
Q 1672 4156 1509 4282 
Q 1347 4409 1081 4409 
Q 919 4409 728 4354 
Q 538 4300 313 4191 
L 313 4575 
Q 553 4663 761 4706 
Q 969 4750 1147 4750 
Q 1600 4750 1872 4544 
Q 2144 4338 2144 4000 
Q 2144 3566 1109 2678 
Q 934 2528 838 2444 
z
" transform="scale(0.015625)"/>
      </defs>
      <use xlink:href="#DejaVuSans-421"/>
      <use xlink:href="#DejaVuSans-440" x="69.824219"/>
      <use xlink:href="#DejaVuSans-435" x="133.300781"/>
      <use xlink:href="#DejaVuSans-434" x="194.824219"/>
      <use xlink:href="#DejaVuSans-43d" x="263.964844"/>
      <use xlink:href="#DejaVuSans-44f" x="329.345703"/>
      <use xlink:href="#DejaVuSans-44f" x="389.501953"/>
      <use xlink:href="#DejaVuSans-20" x="449.658203"/>
      <use xlink:href="#DejaVuSans-43f" x="481.445312"/>
      <use xlink:href="#DejaVuSans-43b" x="546.826172"/>
      <use xlink:href="#DejaVuSans-43e" x="610.742188"/>
      <use xlink:href="#DejaVuSans-449" x="671.923828"/>
      <use xlink:href="#DejaVuSans-430" x="766.113281"/>
      <use xlink:href="#DejaVuSans-434" x="827.392578"/>
      <use xlink:href="#DejaVuSans-44c" x="896.533203"/>
      <use xlink:href="#DejaVuSans-20" x="955.46875"/>
      <use xlink:href="#DejaVuSans-43e" x="987.255859"/>
      <use xlink:href="#DejaVuSans-431" x="1048.4375"/>
      <use xlink:href="#DejaVuSans-43b" x="1110.107422"/>
      <use xlink:href="#DejaVuSans-430" x="1174.023438"/>
      <use xlink:href="#DejaVuSans-441" x="1235.302734"/>
      <use xlink:href="#DejaVuSans-442" x="1290.283203"/>
      <use xlink:href="#DejaVuSans-438" x="1348.535156"/>
      <use xlink:href="#DejaVuSans-2c" x="1413.525391"/>
      <use xlink:href="#DejaVuSans-20" x="1445.3125"/>
      <use xlink:href="#DejaVuSans-43c" x="1477.099609"/>
      <use xlink:href="#DejaVuSans-43a" x="1552.539062"/>
      <use xlink:href="#DejaVuSans-43c" x="1612.939453"/>
      <use xlink:href="#DejaVuSans-b2" x="1688.378906"/>
     </g>
    </g>
   </g>
   <g id="line2d_15">
    <path d="M 51.08375 49.106807 
L 52.490159 49.100791 
L 53.896568 65.824741 
L 55.302977 78.640952 
L 58.115794 78.607162 
L 59.522203 65.546947 
L 60.928612 48.74722 
L 62.335021 48.699765 
L 63.74143 26.2275 
L 65.147839 27.264598 
L 66.554247 27.313723 
L 67.960656 26.5012 
L 69.367065 49.160945 
L 70.773474 49.459041 
L 72.179883 66.452263 
L 73.586292 67.64473 
L 74.992701 68.435419 
L 76.39911 92.731807 
L 77.805518 54.878238 
L 79.211927 55.631498 
L 80.618336 102.654639 
L 82.024745 95.276516 
L 83.431154 86.022799 
L 84.837563 96.081242 
L 86.243972 96.403132 
L 87.65038 104.727275 
L 89.056789 105.102416 
L 90.463198 112.234074 
L 91.869607 126.632107 
L 93.276016 130.447222 
L 96.088834 130.984095 
L 97.495242 167.701909 
L 98.901651 169.547877 
L 100.30806 169.603813 
L 101.714469 168.046958 
L 103.120878 168.178779 
L 104.527287 168.65758 
L 105.933696 169.683003 
L 107.340105 169.915871 
L 108.746513 170.553196 
L 110.152922 169.308074 
L 112.96574 168.81983 
L 114.372149 170.045971 
L 115.778558 168.831081 
L 117.184967 168.505011 
L 118.591375 167.930908 
L 119.997784 168.629076 
L 121.404193 168.834088 
L 122.810602 168.916299 
L 124.217011 169.805306 
L 125.62342 172.364396 
L 127.029829 173.23673 
L 128.436237 173.255042 
L 129.842646 173.744733 
L 131.249055 173.303845 
L 132.655464 173.348921 
L 135.468282 174.60324 
L 136.874691 174.538824 
L 139.687508 174.150808 
L 141.093917 174.861822 
L 142.500326 175.192301 
L 145.313144 175.511262 
L 146.719553 176.003575 
L 148.125962 176.123682 
L 149.53237 176.891775 
L 150.938779 176.637536 
L 152.345188 176.765532 
L 153.751597 177.027482 
L 155.158006 176.858647 
L 156.564415 177.338617 
L 157.970824 176.884643 
L 160.783641 177.212882 
L 162.19005 176.862137 
L 163.596459 176.669132 
L 165.002868 176.615962 
L 166.409277 176.203033 
L 167.815686 176.16577 
L 169.222094 176.370655 
L 170.628503 176.43191 
L 172.034912 176.069017 
L 174.84773 176.808095 
L 176.254139 176.861624 
L 179.066957 176.735439 
L 180.473365 176.715142 
L 181.879774 176.401678 
L 183.286183 175.430797 
L 184.692592 176.519364 
L 186.099001 176.815113 
L 187.50541 176.535703 
L 188.911819 177.109987 
L 190.318227 176.735441 
L 191.724636 177.05358 
L 193.131045 176.852267 
L 194.537454 177.058852 
L 195.943863 177.046925 
L 197.350272 177.209061 
L 198.756681 177.673397 
L 200.163089 177.190623 
L 201.569498 176.391161 
L 202.975907 176.227017 
L 204.382316 176.605542 
L 205.788725 177.298978 
L 207.195134 177.261579 
L 208.601543 177.419689 
L 210.007952 177.73058 
L 211.41436 178.30289 
L 212.820769 178.242463 
L 218.446405 179.003467 
L 219.852814 178.78059 
L 221.259222 178.767388 
L 222.665631 179.066041 
L 224.07204 179.063457 
L 225.478449 178.860553 
L 226.884858 178.545061 
L 231.104084 178.840765 
L 232.510493 179.093853 
L 235.323311 178.739511 
L 236.72972 178.700753 
L 240.948946 178.972988 
L 242.355355 178.892422 
L 245.168173 179.116207 
L 246.574582 179.352956 
L 253.606626 179.63891 
L 255.013035 179.82471 
L 257.825853 179.835727 
L 259.232262 179.75187 
L 262.045079 179.934353 
L 264.857897 179.84709 
L 266.264306 180.076107 
L 267.670715 180.161622 
L 271.889941 179.99761 
L 273.29635 180.176868 
L 274.702759 179.96503 
L 281.734804 179.969683 
L 283.141212 180.078988 
L 285.95403 179.680814 
L 287.360439 179.832407 
L 288.766848 180.110971 
L 290.173257 179.80932 
L 291.579666 179.718254 
L 295.798892 180.094854 
L 297.205301 180.08747 
L 298.61171 180.214669 
L 301.424528 180.251058 
L 302.830936 180.38124 
L 305.643754 180.120087 
L 307.050163 180.069104 
L 308.456572 179.881258 
L 309.862981 179.506864 
L 311.26939 179.420689 
L 312.675798 179.102613 
L 314.082207 178.578939 
L 316.895025 178.418076 
L 318.301434 177.583387 
L 319.707843 177.923229 
L 321.114252 177.91259 
L 322.520661 178.191411 
L 323.927069 178.281109 
L 325.333478 177.998338 
L 326.739887 177.595826 
L 329.552705 176.398521 
L 330.959114 177.281 
L 332.365523 177.39203 
L 333.771931 177.865646 
L 335.17834 177.764876 
L 336.584749 177.498824 
L 337.991158 178.288405 
L 339.397567 178.915161 
L 340.803976 178.945787 
L 342.210385 178.587651 
L 345.023202 177.671236 
L 346.429611 177.862746 
L 347.83602 177.934591 
L 350.648838 178.477579 
L 352.055247 178.024332 
L 353.461656 178.045457 
L 354.868064 179.108372 
L 356.274473 179.276827 
L 357.680882 179.660863 
L 359.087291 179.364441 
L 360.4937 179.725069 
L 364.712926 180.199831 
L 366.119335 180.805279 
L 367.525744 180.895053 
L 368.932153 181.155973 
L 370.338562 181.294738 
L 373.15138 181.222851 
L 375.964197 181.634066 
L 380.183424 181.457855 
L 381.589833 181.2864 
L 384.402651 181.472016 
L 385.809059 181.386211 
L 388.621877 181.597158 
L 390.028286 181.565524 
L 392.841104 181.808111 
L 395.653921 181.70146 
L 397.06033 181.578001 
L 399.873148 181.693485 
L 402.685966 181.557972 
L 405.498783 181.508409 
L 412.530828 181.853083 
L 413.937237 181.815433 
L 415.343645 181.9302 
L 420.969281 181.96 
L 423.782099 181.648081 
L 428.001325 181.701283 
L 433.626961 181.712289 
L 436.439778 181.755811 
L 437.846187 181.578063 
L 440.659005 181.581806 
L 446.28464 181.716925 
L 449.097458 181.924999 
L 450.503867 181.815631 
L 451.910276 181.845307 
L 453.316685 181.599102 
L 454.723094 181.775069 
L 456.129503 181.743643 
L 458.94232 181.418162 
L 460.348729 181.649428 
L 461.755138 181.59937 
L 463.161547 181.376267 
L 464.567956 180.991522 
L 465.974365 180.889929 
L 467.380773 180.443621 
L 468.787182 180.549841 
L 470.193591 180.536358 
L 471.6 180.684553 
L 471.6 180.684553 
" clip-path="url(#p9edbe55f5b)" style="fill: none; stroke: #32cd32; stroke-width: 3; stroke-linecap: square"/>
   </g>
   <g id="patch_3">
    <path d="M 51.08375 181.96 
L 51.08375 26.2275 
" style="fill: none; stroke: #000000; stroke-width: 0.8; stroke-linejoin: miter; stroke-linecap: square"/>
   </g>
   <g id="patch_4">
    <path d="M 471.6 181.96 
L 471.6 26.2275 
" style="fill: none; stroke: #000000; stroke-width: 0.8; stroke-linejoin: miter; stroke-linecap: square"/>
   </g>
   <g id="patch_5">
    <path d="M 51.08375 181.96 
L 471.6 181.96 
" style="fill: none; stroke: #000000; stroke-width: 0.8; stroke-linejoin: miter; stroke-linecap: square"/>
   </g>
   <g id="patch_6">
    <path d="M 51.08375 26.2275 
L 471.6 26.2275 
" style="fill: none; stroke: #000000; stroke-width: 0.8; stroke-linejoin: miter; stroke-linecap: square"/>
   </g>
   <g id="text_17">
    <!-- Средняя площадь области кальциевого события в зависимости от времени -->
    <g transform="translate(20.126875 20.2275) scale(0.12 -0.12)">
     <defs>
      <path id="DejaVuSans-446" d="M 3603 0 
L 581 0 
L 581 3500 
L 1159 3500 
L 1159 459 
L 3025 459 
L 3025 3500 
L 3603 3500 
L 3603 459 
L 4063 459 
L 4063 -884 
L 3603 -884 
L 3603 0 
z
" transform="scale(0.015625)"/>
      <path id="DejaVuSans-432" d="M 1156 1613 
L 1156 459 
L 1975 459 
Q 2369 459 2575 607 
Q 2781 756 2781 1038 
Q 2781 1319 2575 1466 
Q 2369 1613 1975 1613 
L 1156 1613 
z
M 1156 3041 
L 1156 2072 
L 1913 2072 
Q 2238 2072 2444 2201 
Q 2650 2331 2650 2563 
Q 2650 2794 2444 2917 
Q 2238 3041 1913 3041 
L 1156 3041 
z
M 581 3500 
L 1950 3500 
Q 2566 3500 2897 3275 
Q 3228 3050 3228 2634 
Q 3228 2313 3059 2123 
Q 2891 1934 2559 1888 
Q 2956 1813 3175 1575 
Q 3394 1338 3394 981 
Q 3394 513 3033 256 
Q 2672 0 2003 0 
L 581 0 
L 581 3500 
z
" transform="scale(0.015625)"/>
      <path id="DejaVuSans-433" d="M 581 0 
L 581 3500 
L 3050 3500 
L 3050 3041 
L 1159 3041 
L 1159 0 
L 581 0 
z
" transform="scale(0.015625)"/>
      <path id="DejaVuSans-44b" d="M 3907 3500 
L 4482 3500 
L 4482 0 
L 3907 0 
L 3907 3500 
z
M 4195 3584 
L 4195 3584 
z
M 2781 1038 
Q 2781 1319 2576 1466 
Q 2372 1613 1978 1613 
L 1159 1613 
L 1159 459 
L 1978 459 
Q 2372 459 2576 607 
Q 2781 756 2781 1038 
z
M 581 3500 
L 1159 3500 
L 1159 2072 
L 2003 2072 
Q 2672 2072 3033 1817 
Q 3394 1563 3394 1038 
Q 3394 513 3033 256 
Q 2672 0 2003 0 
L 581 0 
L 581 3500 
z
" transform="scale(0.015625)"/>
      <path id="DejaVuSans-437" d="M 2206 1888 
Q 2594 1813 2809 1584 
Q 3025 1356 3025 1019 
Q 3025 478 2622 193 
Q 2219 -91 1475 -91 
Q 1225 -91 961 -47 
Q 697 -3 416 84 
L 416 619 
Q 638 503 903 445 
Q 1169 388 1459 388 
Q 1931 388 2195 563 
Q 2459 738 2459 1019 
Q 2459 1294 2225 1461 
Q 1991 1628 1563 1628 
L 1100 1628 
L 1100 2103 
L 1584 2103 
Q 1947 2103 2158 2242 
Q 2369 2381 2369 2600 
Q 2369 2800 2151 2944 
Q 1934 3088 1563 3088 
Q 1341 3088 1089 3047 
Q 838 3006 534 2916 
L 534 3438 
Q 841 3513 1106 3550 
Q 1372 3588 1609 3588 
Q 2222 3588 2576 3342 
Q 2931 3097 2931 2656 
Q 2931 2366 2743 2164 
Q 2556 1963 2206 1888 
z
" transform="scale(0.015625)"/>
     </defs>
     <use xlink:href="#DejaVuSans-421"/>
     <use xlink:href="#DejaVuSans-440" x="69.824219"/>
     <use xlink:href="#DejaVuSans-435" x="133.300781"/>
     <use xlink:href="#DejaVuSans-434" x="194.824219"/>
     <use xlink:href="#DejaVuSans-43d" x="263.964844"/>
     <use xlink:href="#DejaVuSans-44f" x="329.345703"/>
     <use xlink:href="#DejaVuSans-44f" x="389.501953"/>
     <use xlink:href="#DejaVuSans-20" x="449.658203"/>
     <use xlink:href="#DejaVuSans-43f" x="481.445312"/>
     <use xlink:href="#DejaVuSans-43b" x="546.826172"/>
     <use xlink:href="#DejaVuSans-43e" x="610.742188"/>
     <use xlink:href="#DejaVuSans-449" x="671.923828"/>
     <use xlink:href="#DejaVuSans-430" x="766.113281"/>
     <use xlink:href="#DejaVuSans-434" x="827.392578"/>
     <use xlink:href="#DejaVuSans-44c" x="896.533203"/>
     <use xlink:href="#DejaVuSans-20" x="955.46875"/>
     <use xlink:href="#DejaVuSans-43e" x="987.255859"/>
     <use xlink:href="#DejaVuSans-431" x="1048.4375"/>
     <use xlink:href="#DejaVuSans-43b" x="1110.107422"/>
     <use xlink:href="#DejaVuSans-430" x="1174.023438"/>
     <use xlink:href="#DejaVuSans-441" x="1235.302734"/>
     <use xlink:href="#DejaVuSans-442" x="1290.283203"/>
     <use xlink:href="#DejaVuSans-438" x="1348.535156"/>
     <use xlink:href="#DejaVuSans-20" x="1413.525391"/>
     <use xlink:href="#DejaVuSans-43a" x="1445.3125"/>
     <use xlink:href="#DejaVuSans-430" x="1505.712891"/>
     <use xlink:href="#DejaVuSans-43b" x="1566.992188"/>
     <use xlink:href="#DejaVuSans-44c" x="1630.908203"/>
     <use xlink:href="#DejaVuSans-446" x="1689.84375"/>
     <use xlink:href="#DejaVuSans-438" x="1757.910156"/>
     <use xlink:href="#DejaVuSans-435" x="1822.900391"/>
     <use xlink:href="#DejaVuSans-432" x="1884.423828"/>
     <use xlink:href="#DejaVuSans-43e" x="1943.359375"/>
     <use xlink:href="#DejaVuSans-433" x="2004.541016"/>
     <use xlink:href="#DejaVuSans-43e" x="2057.080078"/>
     <use xlink:href="#DejaVuSans-20" x="2118.261719"/>
     <use xlink:href="#DejaVuSans-441" x="2150.048828"/>
     <use xlink:href="#DejaVuSans-43e" x="2205.029297"/>
     <use xlink:href="#DejaVuSans-431" x="2266.210938"/>
     <use xlink:href="#DejaVuSans-44b" x="2327.880859"/>
     <use xlink:href="#DejaVuSans-442" x="2406.835938"/>
     <use xlink:href="#DejaVuSans-438" x="2465.087891"/>
     <use xlink:href="#DejaVuSans-44f" x="2530.078125"/>
     <use xlink:href="#DejaVuSans-20" x="2590.234375"/>
     <use xlink:href="#DejaVuSans-432" x="2622.021484"/>
     <use xlink:href="#DejaVuSans-20" x="2680.957031"/>
     <use xlink:href="#DejaVuSans-437" x="2712.744141"/>
     <use xlink:href="#DejaVuSans-430" x="2765.917969"/>
     <use xlink:href="#DejaVuSans-432" x="2827.197266"/>
     <use xlink:href="#DejaVuSans-438" x="2886.132812"/>
     <use xlink:href="#DejaVuSans-441" x="2951.123047"/>
     <use xlink:href="#DejaVuSans-438" x="3006.103516"/>
     <use xlink:href="#DejaVuSans-43c" x="3071.09375"/>
     <use xlink:href="#DejaVuSans-43e" x="3146.533203"/>
     <use xlink:href="#DejaVuSans-441" x="3207.714844"/>
     <use xlink:href="#DejaVuSans-442" x="3262.695312"/>
     <use xlink:href="#DejaVuSans-438" x="3320.947266"/>
     <use xlink:href="#DejaVuSans-20" x="3385.9375"/>
     <use xlink:href="#DejaVuSans-43e" x="3417.724609"/>
     <use xlink:href="#DejaVuSans-442" x="3478.90625"/>
     <use xlink:href="#DejaVuSans-20" x="3537.158203"/>
     <use xlink:href="#DejaVuSans-432" x="3568.945312"/>
     <use xlink:href="#DejaVuSans-440" x="3627.880859"/>
     <use xlink:href="#DejaVuSans-435" x="3691.357422"/>
     <use xlink:href="#DejaVuSans-43c" x="3752.880859"/>
     <use xlink:href="#DejaVuSans-435" x="3828.320312"/>
     <use xlink:href="#DejaVuSans-43d" x="3889.84375"/>
     <use xlink:href="#DejaVuSans-438" x="3955.224609"/>
    </g>
   </g>
   <g id="legend_1">
    <g id="patch_7">
     <path d="M 460.6 39.2275 
L 464.6 39.2275 
Q 466.6 39.2275 466.6 37.2275 
L 466.6 33.2275 
Q 466.6 31.2275 464.6 31.2275 
L 460.6 31.2275 
Q 458.6 31.2275 458.6 33.2275 
L 458.6 37.2275 
Q 458.6 39.2275 460.6 39.2275 
z
" style="fill: #ffffff; opacity: 0.8; stroke: #cccccc; stroke-linejoin: miter"/>
    </g>
   </g>
  </g>
 </g>
 <defs>
  <clipPath id="p9edbe55f5b">
   <rect x="51.08375" y="26.2275" width="420.51625" height="155.7325"/>
  </clipPath>
 </defs>
</svg>
