<?xml version="1.0" encoding="utf-8" standalone="no"?>
<!DOCTYPE svg PUBLIC "-//W3C//DTD SVG 1.1//EN"
  "http://www.w3.org/Graphics/SVG/1.1/DTD/svg11.dtd">
<svg xmlns:xlink="http://www.w3.org/1999/xlink" width="482.4pt" height="223.92pt" viewBox="0 0 482.4 223.92" xmlns="http://www.w3.org/2000/svg" version="1.1">
 <metadata>
  <rdf:RDF xmlns:dc="http://purl.org/dc/elements/1.1/" xmlns:cc="http://creativecommons.org/ns#" xmlns:rdf="http://www.w3.org/1999/02/22-rdf-syntax-ns#">
   <cc:Work>
    <dc:type rdf:resource="http://purl.org/dc/dcmitype/StillImage"/>
    <dc:date>2024-06-24T20:19:37.667256</dc:date>
    <dc:format>image/svg+xml</dc:format>
    <dc:creator>
     <cc:Agent>
      <dc:title>Matplotlib v3.8.3, https://matplotlib.org/</dc:title>
     </cc:Agent>
    </dc:creator>
   </cc:Work>
  </rdf:RDF>
 </metadata>
 <defs>
  <style type="text/css">*{stroke-linejoin: round; stroke-linecap: butt}</style>
 </defs>
 <g id="figure_1">
  <g id="patch_1">
   <path d="M 0 223.92 
L 482.4 223.92 
L 482.4 0 
L 0 0 
z
" style="fill: #ffffff"/>
  </g>
  <g id="axes_1">
   <g id="patch_2">
    <path d="M 44.69375 181.96 
L 471.6 181.96 
L 471.6 26.2275 
L 44.69375 26.2275 
z
" style="fill: #ffffff"/>
   </g>
   <g id="matplotlib.axis_1">
    <g id="xtick_1">
     <g id="line2d_1">
      <defs>
       <path id="m290e9e6c0c" d="M 0 0 
L 0 3.5 
" style="stroke: #000000; stroke-width: 0.8"/>
      </defs>
      <g>
       <use xlink:href="#m290e9e6c0c" x="44.69375" y="181.96" style="stroke: #000000; stroke-width: 0.8"/>
      </g>
     </g>
     <g id="text_1">
      <!-- 0 -->
      <g transform="translate(41.5125 196.558437) scale(0.1 -0.1)">
       <defs>
        <path id="DejaVuSans-30" d="M 2034 4250 
Q 1547 4250 1301 3770 
Q 1056 3291 1056 2328 
Q 1056 1369 1301 889 
Q 1547 409 2034 409 
Q 2525 409 2770 889 
Q 3016 1369 3016 2328 
Q 3016 3291 2770 3770 
Q 2525 4250 2034 4250 
z
M 2034 4750 
Q 2819 4750 3233 4129 
Q 3647 3509 3647 2328 
Q 3647 1150 3233 529 
Q 2819 -91 2034 -91 
Q 1250 -91 836 529 
Q 422 1150 422 2328 
Q 422 3509 836 4129 
Q 1250 4750 2034 4750 
z
" transform="scale(0.015625)"/>
       </defs>
       <use xlink:href="#DejaVuSans-30"/>
      </g>
     </g>
    </g>
    <g id="xtick_2">
     <g id="line2d_2">
      <g>
       <use xlink:href="#m290e9e6c0c" x="101.804954" y="181.96" style="stroke: #000000; stroke-width: 0.8"/>
      </g>
     </g>
     <g id="text_2">
      <!-- 20 -->
      <g transform="translate(95.442454 196.558437) scale(0.1 -0.1)">
       <defs>
        <path id="DejaVuSans-32" d="M 1228 531 
L 3431 531 
L 3431 0 
L 469 0 
L 469 531 
Q 828 903 1448 1529 
Q 2069 2156 2228 2338 
Q 2531 2678 2651 2914 
Q 2772 3150 2772 3378 
Q 2772 3750 2511 3984 
Q 2250 4219 1831 4219 
Q 1534 4219 1204 4116 
Q 875 4013 500 3803 
L 500 4441 
Q 881 4594 1212 4672 
Q 1544 4750 1819 4750 
Q 2544 4750 2975 4387 
Q 3406 4025 3406 3419 
Q 3406 3131 3298 2873 
Q 3191 2616 2906 2266 
Q 2828 2175 2409 1742 
Q 1991 1309 1228 531 
z
" transform="scale(0.015625)"/>
       </defs>
       <use xlink:href="#DejaVuSans-32"/>
       <use xlink:href="#DejaVuSans-30" x="63.623047"/>
      </g>
     </g>
    </g>
    <g id="xtick_3">
     <g id="line2d_3">
      <g>
       <use xlink:href="#m290e9e6c0c" x="158.916158" y="181.96" style="stroke: #000000; stroke-width: 0.8"/>
      </g>
     </g>
     <g id="text_3">
      <!-- 40 -->
      <g transform="translate(152.553658 196.558437) scale(0.1 -0.1)">
       <defs>
        <path id="DejaVuSans-34" d="M 2419 4116 
L 825 1625 
L 2419 1625 
L 2419 4116 
z
M 2253 4666 
L 3047 4666 
L 3047 1625 
L 3713 1625 
L 3713 1100 
L 3047 1100 
L 3047 0 
L 2419 0 
L 2419 1100 
L 313 1100 
L 313 1709 
L 2253 4666 
z
" transform="scale(0.015625)"/>
       </defs>
       <use xlink:href="#DejaVuSans-34"/>
       <use xlink:href="#DejaVuSans-30" x="63.623047"/>
      </g>
     </g>
    </g>
    <g id="xtick_4">
     <g id="line2d_4">
      <g>
       <use xlink:href="#m290e9e6c0c" x="216.027362" y="181.96" style="stroke: #000000; stroke-width: 0.8"/>
      </g>
     </g>
     <g id="text_4">
      <!-- 60 -->
      <g transform="translate(209.664862 196.558437) scale(0.1 -0.1)">
       <defs>
        <path id="DejaVuSans-36" d="M 2113 2584 
Q 1688 2584 1439 2293 
Q 1191 2003 1191 1497 
Q 1191 994 1439 701 
Q 1688 409 2113 409 
Q 2538 409 2786 701 
Q 3034 994 3034 1497 
Q 3034 2003 2786 2293 
Q 2538 2584 2113 2584 
z
M 3366 4563 
L 3366 3988 
Q 3128 4100 2886 4159 
Q 2644 4219 2406 4219 
Q 1781 4219 1451 3797 
Q 1122 3375 1075 2522 
Q 1259 2794 1537 2939 
Q 1816 3084 2150 3084 
Q 2853 3084 3261 2657 
Q 3669 2231 3669 1497 
Q 3669 778 3244 343 
Q 2819 -91 2113 -91 
Q 1303 -91 875 529 
Q 447 1150 447 2328 
Q 447 3434 972 4092 
Q 1497 4750 2381 4750 
Q 2619 4750 2861 4703 
Q 3103 4656 3366 4563 
z
" transform="scale(0.015625)"/>
       </defs>
       <use xlink:href="#DejaVuSans-36"/>
       <use xlink:href="#DejaVuSans-30" x="63.623047"/>
      </g>
     </g>
    </g>
    <g id="xtick_5">
     <g id="line2d_5">
      <g>
       <use xlink:href="#m290e9e6c0c" x="273.138566" y="181.96" style="stroke: #000000; stroke-width: 0.8"/>
      </g>
     </g>
     <g id="text_5">
      <!-- 80 -->
      <g transform="translate(266.776066 196.558437) scale(0.1 -0.1)">
       <defs>
        <path id="DejaVuSans-38" d="M 2034 2216 
Q 1584 2216 1326 1975 
Q 1069 1734 1069 1313 
Q 1069 891 1326 650 
Q 1584 409 2034 409 
Q 2484 409 2743 651 
Q 3003 894 3003 1313 
Q 3003 1734 2745 1975 
Q 2488 2216 2034 2216 
z
M 1403 2484 
Q 997 2584 770 2862 
Q 544 3141 544 3541 
Q 544 4100 942 4425 
Q 1341 4750 2034 4750 
Q 2731 4750 3128 4425 
Q 3525 4100 3525 3541 
Q 3525 3141 3298 2862 
Q 3072 2584 2669 2484 
Q 3125 2378 3379 2068 
Q 3634 1759 3634 1313 
Q 3634 634 3220 271 
Q 2806 -91 2034 -91 
Q 1263 -91 848 271 
Q 434 634 434 1313 
Q 434 1759 690 2068 
Q 947 2378 1403 2484 
z
M 1172 3481 
Q 1172 3119 1398 2916 
Q 1625 2713 2034 2713 
Q 2441 2713 2670 2916 
Q 2900 3119 2900 3481 
Q 2900 3844 2670 4047 
Q 2441 4250 2034 4250 
Q 1625 4250 1398 4047 
Q 1172 3844 1172 3481 
z
" transform="scale(0.015625)"/>
       </defs>
       <use xlink:href="#DejaVuSans-38"/>
       <use xlink:href="#DejaVuSans-30" x="63.623047"/>
      </g>
     </g>
    </g>
    <g id="xtick_6">
     <g id="line2d_6">
      <g>
       <use xlink:href="#m290e9e6c0c" x="330.24977" y="181.96" style="stroke: #000000; stroke-width: 0.8"/>
      </g>
     </g>
     <g id="text_6">
      <!-- 100 -->
      <g transform="translate(320.70602 196.558437) scale(0.1 -0.1)">
       <defs>
        <path id="DejaVuSans-31" d="M 794 531 
L 1825 531 
L 1825 4091 
L 703 3866 
L 703 4441 
L 1819 4666 
L 2450 4666 
L 2450 531 
L 3481 531 
L 3481 0 
L 794 0 
L 794 531 
z
" transform="scale(0.015625)"/>
       </defs>
       <use xlink:href="#DejaVuSans-31"/>
       <use xlink:href="#DejaVuSans-30" x="63.623047"/>
       <use xlink:href="#DejaVuSans-30" x="127.246094"/>
      </g>
     </g>
    </g>
    <g id="xtick_7">
     <g id="line2d_7">
      <g>
       <use xlink:href="#m290e9e6c0c" x="387.360974" y="181.96" style="stroke: #000000; stroke-width: 0.8"/>
      </g>
     </g>
     <g id="text_7">
      <!-- 120 -->
      <g transform="translate(377.817224 196.558437) scale(0.1 -0.1)">
       <use xlink:href="#DejaVuSans-31"/>
       <use xlink:href="#DejaVuSans-32" x="63.623047"/>
       <use xlink:href="#DejaVuSans-30" x="127.246094"/>
      </g>
     </g>
    </g>
    <g id="xtick_8">
     <g id="line2d_8">
      <g>
       <use xlink:href="#m290e9e6c0c" x="444.472178" y="181.96" style="stroke: #000000; stroke-width: 0.8"/>
      </g>
     </g>
     <g id="text_8">
      <!-- 140 -->
      <g transform="translate(434.928428 196.558437) scale(0.1 -0.1)">
       <use xlink:href="#DejaVuSans-31"/>
       <use xlink:href="#DejaVuSans-34" x="63.623047"/>
       <use xlink:href="#DejaVuSans-30" x="127.246094"/>
      </g>
     </g>
    </g>
    <g id="text_9">
     <!-- Время, c -->
     <g transform="translate(235.758594 210.236562) scale(0.1 -0.1)">
      <defs>
       <path id="DejaVuSans-412" d="M 1259 2228 
L 1259 519 
L 2272 519 
Q 2781 519 3026 730 
Q 3272 941 3272 1375 
Q 3272 1813 3026 2020 
Q 2781 2228 2272 2228 
L 1259 2228 
z
M 1259 4147 
L 1259 2741 
L 2194 2741 
Q 2656 2741 2882 2914 
Q 3109 3088 3109 3444 
Q 3109 3797 2882 3972 
Q 2656 4147 2194 4147 
L 1259 4147 
z
M 628 4666 
L 2241 4666 
Q 2963 4666 3353 4366 
Q 3744 4066 3744 3513 
Q 3744 3084 3544 2831 
Q 3344 2578 2956 2516 
Q 3422 2416 3680 2098 
Q 3938 1781 3938 1306 
Q 3938 681 3513 340 
Q 3088 0 2303 0 
L 628 0 
L 628 4666 
z
" transform="scale(0.015625)"/>
       <path id="DejaVuSans-440" d="M 1159 525 
L 1159 -1331 
L 581 -1331 
L 581 3500 
L 1159 3500 
L 1159 2969 
Q 1341 3281 1617 3432 
Q 1894 3584 2278 3584 
Q 2916 3584 3314 3078 
Q 3713 2572 3713 1747 
Q 3713 922 3314 415 
Q 2916 -91 2278 -91 
Q 1894 -91 1617 61 
Q 1341 213 1159 525 
z
M 3116 1747 
Q 3116 2381 2855 2742 
Q 2594 3103 2138 3103 
Q 1681 3103 1420 2742 
Q 1159 2381 1159 1747 
Q 1159 1113 1420 752 
Q 1681 391 2138 391 
Q 2594 391 2855 752 
Q 3116 1113 3116 1747 
z
" transform="scale(0.015625)"/>
       <path id="DejaVuSans-435" d="M 3597 1894 
L 3597 1613 
L 953 1613 
Q 991 1019 1311 708 
Q 1631 397 2203 397 
Q 2534 397 2845 478 
Q 3156 559 3463 722 
L 3463 178 
Q 3153 47 2828 -22 
Q 2503 -91 2169 -91 
Q 1331 -91 842 396 
Q 353 884 353 1716 
Q 353 2575 817 3079 
Q 1281 3584 2069 3584 
Q 2775 3584 3186 3129 
Q 3597 2675 3597 1894 
z
M 3022 2063 
Q 3016 2534 2758 2815 
Q 2500 3097 2075 3097 
Q 1594 3097 1305 2825 
Q 1016 2553 972 2059 
L 3022 2063 
z
" transform="scale(0.015625)"/>
       <path id="DejaVuSans-43c" d="M 581 3500 
L 1422 3500 
L 2416 1156 
L 3413 3500 
L 4247 3500 
L 4247 0 
L 3669 0 
L 3669 2950 
L 2703 672 
L 2128 672 
L 1159 2950 
L 1159 0 
L 581 0 
L 581 3500 
z
" transform="scale(0.015625)"/>
       <path id="DejaVuSans-44f" d="M 1181 2491 
Q 1181 2231 1381 2084 
Q 1581 1938 1953 1938 
L 2728 1938 
L 2728 3041 
L 1953 3041 
Q 1581 3041 1381 2897 
Q 1181 2753 1181 2491 
z
M 363 0 
L 1431 1534 
Q 1069 1616 828 1830 
Q 588 2044 588 2491 
Q 588 2997 923 3248 
Q 1259 3500 1938 3500 
L 3306 3500 
L 3306 0 
L 2728 0 
L 2728 1478 
L 2013 1478 
L 981 0 
L 363 0 
z
" transform="scale(0.015625)"/>
       <path id="DejaVuSans-2c" d="M 750 794 
L 1409 794 
L 1409 256 
L 897 -744 
L 494 -744 
L 750 256 
L 750 794 
z
" transform="scale(0.015625)"/>
       <path id="DejaVuSans-20" transform="scale(0.015625)"/>
       <path id="DejaVuSans-63" d="M 3122 3366 
L 3122 2828 
Q 2878 2963 2633 3030 
Q 2388 3097 2138 3097 
Q 1578 3097 1268 2742 
Q 959 2388 959 1747 
Q 959 1106 1268 751 
Q 1578 397 2138 397 
Q 2388 397 2633 464 
Q 2878 531 3122 666 
L 3122 134 
Q 2881 22 2623 -34 
Q 2366 -91 2075 -91 
Q 1284 -91 818 406 
Q 353 903 353 1747 
Q 353 2603 823 3093 
Q 1294 3584 2113 3584 
Q 2378 3584 2631 3529 
Q 2884 3475 3122 3366 
z
" transform="scale(0.015625)"/>
      </defs>
      <use xlink:href="#DejaVuSans-412"/>
      <use xlink:href="#DejaVuSans-440" x="68.603516"/>
      <use xlink:href="#DejaVuSans-435" x="132.080078"/>
      <use xlink:href="#DejaVuSans-43c" x="193.603516"/>
      <use xlink:href="#DejaVuSans-44f" x="269.042969"/>
      <use xlink:href="#DejaVuSans-2c" x="329.199219"/>
      <use xlink:href="#DejaVuSans-20" x="360.986328"/>
      <use xlink:href="#DejaVuSans-63" x="392.773438"/>
     </g>
    </g>
   </g>
   <g id="matplotlib.axis_2">
    <g id="ytick_1">
     <g id="line2d_9">
      <defs>
       <path id="m98efc1ef01" d="M 0 0 
L -3.5 0 
" style="stroke: #000000; stroke-width: 0.8"/>
      </defs>
      <g>
       <use xlink:href="#m98efc1ef01" x="44.69375" y="156.676113" style="stroke: #000000; stroke-width: 0.8"/>
      </g>
     </g>
     <g id="text_10">
      <!-- 5 -->
      <g transform="translate(31.33125 160.475332) scale(0.1 -0.1)">
       <defs>
        <path id="DejaVuSans-35" d="M 691 4666 
L 3169 4666 
L 3169 4134 
L 1269 4134 
L 1269 2991 
Q 1406 3038 1543 3061 
Q 1681 3084 1819 3084 
Q 2600 3084 3056 2656 
Q 3513 2228 3513 1497 
Q 3513 744 3044 326 
Q 2575 -91 1722 -91 
Q 1428 -91 1123 -41 
Q 819 9 494 109 
L 494 744 
Q 775 591 1075 516 
Q 1375 441 1709 441 
Q 2250 441 2565 725 
Q 2881 1009 2881 1497 
Q 2881 1984 2565 2268 
Q 2250 2553 1709 2553 
Q 1456 2553 1204 2497 
Q 953 2441 691 2322 
L 691 4666 
z
" transform="scale(0.015625)"/>
       </defs>
       <use xlink:href="#DejaVuSans-35"/>
      </g>
     </g>
    </g>
    <g id="ytick_2">
     <g id="line2d_10">
      <g>
       <use xlink:href="#m98efc1ef01" x="44.69375" y="120.180482" style="stroke: #000000; stroke-width: 0.8"/>
      </g>
     </g>
     <g id="text_11">
      <!-- 10 -->
      <g transform="translate(24.96875 123.979701) scale(0.1 -0.1)">
       <use xlink:href="#DejaVuSans-31"/>
       <use xlink:href="#DejaVuSans-30" x="63.623047"/>
      </g>
     </g>
    </g>
    <g id="ytick_3">
     <g id="line2d_11">
      <g>
       <use xlink:href="#m98efc1ef01" x="44.69375" y="83.684851" style="stroke: #000000; stroke-width: 0.8"/>
      </g>
     </g>
     <g id="text_12">
      <!-- 15 -->
      <g transform="translate(24.96875 87.484069) scale(0.1 -0.1)">
       <use xlink:href="#DejaVuSans-31"/>
       <use xlink:href="#DejaVuSans-35" x="63.623047"/>
      </g>
     </g>
    </g>
    <g id="ytick_4">
     <g id="line2d_12">
      <g>
       <use xlink:href="#m98efc1ef01" x="44.69375" y="47.189219" style="stroke: #000000; stroke-width: 0.8"/>
      </g>
     </g>
     <g id="text_13">
      <!-- 20 -->
      <g transform="translate(24.96875 50.988438) scale(0.1 -0.1)">
       <use xlink:href="#DejaVuSans-32"/>
       <use xlink:href="#DejaVuSans-30" x="63.623047"/>
      </g>
     </g>
    </g>
    <g id="text_14">
     <!-- Средняя площадь области, мкм² -->
     <g transform="translate(18.889063 190.517969) rotate(-90) scale(0.1 -0.1)">
      <defs>
       <path id="DejaVuSans-421" d="M 4122 4306 
L 4122 3641 
Q 3803 3938 3442 4084 
Q 3081 4231 2675 4231 
Q 1875 4231 1450 3742 
Q 1025 3253 1025 2328 
Q 1025 1406 1450 917 
Q 1875 428 2675 428 
Q 3081 428 3442 575 
Q 3803 722 4122 1019 
L 4122 359 
Q 3791 134 3420 21 
Q 3050 -91 2638 -91 
Q 1578 -91 968 557 
Q 359 1206 359 2328 
Q 359 3453 968 4101 
Q 1578 4750 2638 4750 
Q 3056 4750 3426 4639 
Q 3797 4528 4122 4306 
z
" transform="scale(0.015625)"/>
       <path id="DejaVuSans-434" d="M 1384 459 
L 3053 459 
L 3053 3041 
L 1844 3041 
L 1844 2603 
Q 1844 1316 1475 628 
L 1384 459 
z
M 550 459 
Q 834 584 959 850 
Q 1266 1509 1266 2838 
L 1266 3500 
L 3631 3500 
L 3631 459 
L 4091 459 
L 4091 -884 
L 3631 -884 
L 3631 0 
L 794 0 
L 794 -884 
L 334 -884 
L 334 459 
L 550 459 
z
" transform="scale(0.015625)"/>
       <path id="DejaVuSans-43d" d="M 581 3500 
L 1159 3500 
L 1159 2072 
L 3025 2072 
L 3025 3500 
L 3603 3500 
L 3603 0 
L 3025 0 
L 3025 1613 
L 1159 1613 
L 1159 0 
L 581 0 
L 581 3500 
z
" transform="scale(0.015625)"/>
       <path id="DejaVuSans-43f" d="M 3603 3500 
L 3603 0 
L 3025 0 
L 3025 3041 
L 1159 3041 
L 1159 0 
L 581 0 
L 581 3500 
L 3603 3500 
z
" transform="scale(0.015625)"/>
       <path id="DejaVuSans-43b" d="M 238 0 
L 238 478 
Q 806 566 981 959 
Q 1194 1513 1194 2928 
L 1194 3500 
L 3559 3500 
L 3559 0 
L 2984 0 
L 2984 3041 
L 1769 3041 
L 1769 2694 
Q 1769 1344 1494 738 
Q 1200 91 238 0 
z
" transform="scale(0.015625)"/>
       <path id="DejaVuSans-43e" d="M 1959 3097 
Q 1497 3097 1228 2736 
Q 959 2375 959 1747 
Q 959 1119 1226 758 
Q 1494 397 1959 397 
Q 2419 397 2687 759 
Q 2956 1122 2956 1747 
Q 2956 2369 2687 2733 
Q 2419 3097 1959 3097 
z
M 1959 3584 
Q 2709 3584 3137 3096 
Q 3566 2609 3566 1747 
Q 3566 888 3137 398 
Q 2709 -91 1959 -91 
Q 1206 -91 779 398 
Q 353 888 353 1747 
Q 353 2609 779 3096 
Q 1206 3584 1959 3584 
z
" transform="scale(0.015625)"/>
       <path id="DejaVuSans-449" d="M 5275 0 
L 581 0 
L 581 3500 
L 1159 3500 
L 1159 459 
L 2638 459 
L 2638 3500 
L 3216 3500 
L 3216 459 
L 4697 459 
L 4697 3500 
L 5275 3500 
L 5275 459 
L 5734 459 
L 5734 -884 
L 5275 -884 
L 5275 0 
z
" transform="scale(0.015625)"/>
       <path id="DejaVuSans-430" d="M 2194 1759 
Q 1497 1759 1228 1600 
Q 959 1441 959 1056 
Q 959 750 1161 570 
Q 1363 391 1709 391 
Q 2188 391 2477 730 
Q 2766 1069 2766 1631 
L 2766 1759 
L 2194 1759 
z
M 3341 1997 
L 3341 0 
L 2766 0 
L 2766 531 
Q 2569 213 2275 61 
Q 1981 -91 1556 -91 
Q 1019 -91 701 211 
Q 384 513 384 1019 
Q 384 1609 779 1909 
Q 1175 2209 1959 2209 
L 2766 2209 
L 2766 2266 
Q 2766 2663 2505 2880 
Q 2244 3097 1772 3097 
Q 1472 3097 1187 3025 
Q 903 2953 641 2809 
L 641 3341 
Q 956 3463 1253 3523 
Q 1550 3584 1831 3584 
Q 2591 3584 2966 3190 
Q 3341 2797 3341 1997 
z
" transform="scale(0.015625)"/>
       <path id="DejaVuSans-44c" d="M 2781 1038 
Q 2781 1319 2576 1466 
Q 2372 1613 1978 1613 
L 1159 1613 
L 1159 459 
L 1978 459 
Q 2372 459 2576 607 
Q 2781 756 2781 1038 
z
M 581 3500 
L 1159 3500 
L 1159 2072 
L 2003 2072 
Q 2672 2072 3033 1817 
Q 3394 1563 3394 1038 
Q 3394 513 3033 256 
Q 2672 0 2003 0 
L 581 0 
L 581 3500 
z
" transform="scale(0.015625)"/>
       <path id="DejaVuSans-431" d="M 1991 3584 
Q 2741 3584 3169 3096 
Q 3597 2609 3597 1747 
Q 3597 888 3169 398 
Q 2741 -91 1991 -91 
Q 1238 -91 822 384 
Q 406 859 384 1747 
L 366 2463 
Q 350 2834 350 2963 
Q 350 3463 531 3831 
Q 816 4409 1308 4659 
Q 1800 4909 2625 4916 
Q 3006 4919 3175 4972 
L 3334 4516 
Q 3181 4453 3041 4450 
L 2259 4397 
Q 1866 4369 1628 4231 
Q 1006 3866 947 3388 
L 925 3213 
Q 1331 3584 1991 3584 
z
M 1991 3097 
Q 1528 3097 1259 2736 
Q 991 2375 991 1747 
Q 991 1119 1258 758 
Q 1525 397 1991 397 
Q 2450 397 2719 759 
Q 2988 1122 2988 1747 
Q 2988 2369 2719 2733 
Q 2450 3097 1991 3097 
z
" transform="scale(0.015625)"/>
       <path id="DejaVuSans-441" d="M 3122 3366 
L 3122 2828 
Q 2878 2963 2633 3030 
Q 2388 3097 2138 3097 
Q 1578 3097 1268 2742 
Q 959 2388 959 1747 
Q 959 1106 1268 751 
Q 1578 397 2138 397 
Q 2388 397 2633 464 
Q 2878 531 3122 666 
L 3122 134 
Q 2881 22 2623 -34 
Q 2366 -91 2075 -91 
Q 1284 -91 818 406 
Q 353 903 353 1747 
Q 353 2603 823 3093 
Q 1294 3584 2113 3584 
Q 2378 3584 2631 3529 
Q 2884 3475 3122 3366 
z
" transform="scale(0.015625)"/>
       <path id="DejaVuSans-442" d="M 188 3500 
L 3541 3500 
L 3541 3041 
L 2147 3041 
L 2147 0 
L 1581 0 
L 1581 3041 
L 188 3041 
L 188 3500 
z
" transform="scale(0.015625)"/>
       <path id="DejaVuSans-438" d="M 3578 3500 
L 3578 0 
L 3006 0 
L 3006 2809 
L 1319 0 
L 581 0 
L 581 3500 
L 1153 3500 
L 1153 697 
L 2838 3500 
L 3578 3500 
z
" transform="scale(0.015625)"/>
       <path id="DejaVuSans-43a" d="M 581 3500 
L 1153 3500 
L 1153 1856 
L 2775 3500 
L 3481 3500 
L 2144 2147 
L 3653 0 
L 3009 0 
L 1769 1766 
L 1153 1141 
L 1153 0 
L 581 0 
L 581 3500 
z
" transform="scale(0.015625)"/>
       <path id="DejaVuSans-b2" d="M 838 2444 
L 2163 2444 
L 2163 2088 
L 294 2088 
L 294 2431 
Q 400 2528 597 2703 
Q 1672 3656 1672 3950 
Q 1672 4156 1509 4282 
Q 1347 4409 1081 4409 
Q 919 4409 728 4354 
Q 538 4300 313 4191 
L 313 4575 
Q 553 4663 761 4706 
Q 969 4750 1147 4750 
Q 1600 4750 1872 4544 
Q 2144 4338 2144 4000 
Q 2144 3566 1109 2678 
Q 934 2528 838 2444 
z
" transform="scale(0.015625)"/>
      </defs>
      <use xlink:href="#DejaVuSans-421"/>
      <use xlink:href="#DejaVuSans-440" x="69.824219"/>
      <use xlink:href="#DejaVuSans-435" x="133.300781"/>
      <use xlink:href="#DejaVuSans-434" x="194.824219"/>
      <use xlink:href="#DejaVuSans-43d" x="263.964844"/>
      <use xlink:href="#DejaVuSans-44f" x="329.345703"/>
      <use xlink:href="#DejaVuSans-44f" x="389.501953"/>
      <use xlink:href="#DejaVuSans-20" x="449.658203"/>
      <use xlink:href="#DejaVuSans-43f" x="481.445312"/>
      <use xlink:href="#DejaVuSans-43b" x="546.826172"/>
      <use xlink:href="#DejaVuSans-43e" x="610.742188"/>
      <use xlink:href="#DejaVuSans-449" x="671.923828"/>
      <use xlink:href="#DejaVuSans-430" x="766.113281"/>
      <use xlink:href="#DejaVuSans-434" x="827.392578"/>
      <use xlink:href="#DejaVuSans-44c" x="896.533203"/>
      <use xlink:href="#DejaVuSans-20" x="955.46875"/>
      <use xlink:href="#DejaVuSans-43e" x="987.255859"/>
      <use xlink:href="#DejaVuSans-431" x="1048.4375"/>
      <use xlink:href="#DejaVuSans-43b" x="1110.107422"/>
      <use xlink:href="#DejaVuSans-430" x="1174.023438"/>
      <use xlink:href="#DejaVuSans-441" x="1235.302734"/>
      <use xlink:href="#DejaVuSans-442" x="1290.283203"/>
      <use xlink:href="#DejaVuSans-438" x="1348.535156"/>
      <use xlink:href="#DejaVuSans-2c" x="1413.525391"/>
      <use xlink:href="#DejaVuSans-20" x="1445.3125"/>
      <use xlink:href="#DejaVuSans-43c" x="1477.099609"/>
      <use xlink:href="#DejaVuSans-43a" x="1552.539062"/>
      <use xlink:href="#DejaVuSans-43c" x="1612.939453"/>
      <use xlink:href="#DejaVuSans-b2" x="1688.378906"/>
     </g>
    </g>
   </g>
   <g id="line2d_13">
    <path d="M 44.69375 27.880112 
L 46.12153 26.2275 
L 47.54931 37.667558 
L 48.97709 40.562448 
L 50.40487 45.196763 
L 51.832651 47.912269 
L 53.260431 53.579513 
L 54.688211 58.18493 
L 56.115991 62.389563 
L 57.543771 69.994691 
L 58.971551 74.931953 
L 60.399331 71.589026 
L 61.827111 75.566587 
L 63.254891 77.582066 
L 64.682671 78.201729 
L 66.110452 70.966011 
L 67.538232 67.411563 
L 68.966012 49.449794 
L 70.393792 49.060972 
L 71.821572 54.986798 
L 73.249352 52.474483 
L 74.677132 51.469444 
L 76.104912 51.268763 
L 77.532692 58.775751 
L 78.960472 59.524331 
L 80.388253 56.105385 
L 81.816033 59.728702 
L 83.243813 53.570629 
L 84.671593 47.971675 
L 86.099373 48.834481 
L 87.527153 55.92567 
L 88.954933 49.787698 
L 90.382713 56.278653 
L 91.810493 61.22155 
L 93.238273 61.643459 
L 96.093834 72.212058 
L 97.521614 81.987339 
L 98.949394 84.856614 
L 100.377174 86.394369 
L 101.804954 90.752763 
L 103.232734 96.376451 
L 104.660514 99.385403 
L 106.088294 104.965234 
L 107.516074 105.697287 
L 108.943855 104.733097 
L 110.371635 106.157755 
L 111.799415 109.123751 
L 113.227195 110.27829 
L 114.654975 110.29771 
L 117.510535 116.248073 
L 118.938315 123.82369 
L 120.366095 124.874321 
L 121.793875 120.798731 
L 123.221656 122.133254 
L 124.649436 118.932566 
L 126.077216 120.072526 
L 127.504996 120.095434 
L 128.932776 117.335096 
L 130.360556 120.660985 
L 131.788336 119.840221 
L 133.216116 116.888812 
L 134.643896 118.467728 
L 136.071676 118.04803 
L 137.499457 121.71458 
L 138.927237 123.136217 
L 140.355017 128.070646 
L 141.782797 131.763974 
L 143.210577 131.254111 
L 144.638357 134.71495 
L 147.493917 136.913125 
L 148.921697 137.112747 
L 150.349477 135.743503 
L 151.777258 134.810141 
L 153.205038 133.158598 
L 154.632818 128.787268 
L 156.060598 127.412423 
L 157.488378 125.031622 
L 158.916158 124.586671 
L 160.343938 121.301966 
L 161.771718 115.779664 
L 163.199498 112.451193 
L 164.627278 112.848284 
L 166.055059 111.808769 
L 167.482839 109.524159 
L 168.910619 102.774105 
L 170.338399 96.850845 
L 171.766179 89.750959 
L 173.193959 87.36752 
L 174.621739 85.48466 
L 176.049519 80.914821 
L 177.477299 84.370518 
L 178.905079 85.292552 
L 180.33286 89.165438 
L 181.76064 86.722736 
L 183.18842 88.23521 
L 184.6162 86.907392 
L 186.04398 89.236602 
L 187.47176 93.774874 
L 188.89954 90.438944 
L 190.32732 91.693653 
L 191.7551 100.141818 
L 193.18288 101.831173 
L 194.610661 99.544861 
L 197.466221 109.495972 
L 198.894001 104.94024 
L 200.321781 107.72284 
L 201.749561 111.447982 
L 203.177341 105.865918 
L 204.605121 109.626329 
L 206.032901 108.468053 
L 207.460681 117.712963 
L 208.888462 121.722457 
L 210.316242 122.394889 
L 211.744022 123.76576 
L 213.171802 126.735737 
L 214.599582 137.008789 
L 216.027362 145.86713 
L 217.455142 146.527105 
L 218.882922 145.002001 
L 220.310702 147.25041 
L 221.738482 153.736977 
L 223.166263 159.073446 
L 224.594043 158.299502 
L 226.021823 160.274338 
L 227.449603 158.244559 
L 228.877383 157.367215 
L 230.305163 157.146721 
L 231.732943 157.308402 
L 233.160723 154.960374 
L 234.588503 155.325479 
L 236.016283 154.61534 
L 237.444064 156.597322 
L 238.871844 157.031505 
L 240.299624 155.633539 
L 241.727404 156.102064 
L 243.155184 152.03263 
L 244.582964 150.050961 
L 246.010744 148.594036 
L 247.438524 141.558022 
L 248.866304 139.592902 
L 250.294084 127.832264 
L 251.721865 125.493699 
L 253.149645 127.875381 
L 254.577425 123.467653 
L 256.005205 118.50593 
L 257.432985 101.977257 
L 258.860765 96.224554 
L 260.288545 91.193646 
L 261.716325 94.240806 
L 263.144105 82.412852 
L 264.571885 87.518017 
L 265.999666 83.201456 
L 267.427446 87.922868 
L 268.855226 86.362039 
L 270.283006 70.961648 
L 271.710786 61.755236 
L 273.138566 74.539729 
L 274.566346 76.382713 
L 275.994126 70.925153 
L 277.421906 81.004856 
L 278.849686 87.371682 
L 280.277467 88.606359 
L 281.705247 102.130381 
L 283.133027 94.326037 
L 284.560807 98.096522 
L 285.988587 105.454544 
L 287.416367 120.851378 
L 288.844147 137.85659 
L 290.271927 141.350181 
L 291.699707 148.922131 
L 293.127487 150.192054 
L 294.555268 149.880028 
L 295.983048 148.815458 
L 297.410828 147.411442 
L 298.838608 147.804865 
L 301.694168 148.355502 
L 303.121948 152.256985 
L 304.549728 141.579795 
L 305.977508 141.66577 
L 307.405288 144.992127 
L 308.833069 149.378791 
L 310.260849 154.978316 
L 311.688629 158.707156 
L 313.116409 161.705362 
L 314.544189 159.130755 
L 315.971969 158.301628 
L 317.399749 159.50043 
L 318.827529 157.697103 
L 320.255309 153.186825 
L 321.683089 154.107493 
L 323.11087 153.989103 
L 324.53865 155.679059 
L 325.96643 156.23128 
L 327.39421 154.289219 
L 328.82199 155.165155 
L 330.24977 156.483182 
L 331.67755 155.746534 
L 333.10533 150.742397 
L 334.53311 149.638372 
L 335.96089 151.295857 
L 337.388671 147.306656 
L 338.816451 149.056194 
L 340.244231 148.757735 
L 341.672011 152.949904 
L 343.099791 152.937881 
L 344.527571 156.056606 
L 347.383131 156.622114 
L 348.810911 160.417942 
L 350.238691 158.464925 
L 353.094252 147.937233 
L 357.377592 115.334485 
L 358.805372 114.135474 
L 360.233152 112.667575 
L 361.660932 117.747919 
L 363.088712 117.763576 
L 364.516492 120.597916 
L 365.944273 120.371013 
L 367.372053 116.969299 
L 368.799833 118.524778 
L 370.227613 130.455582 
L 371.655393 148.310889 
L 373.083173 161.375974 
L 374.510953 161.501432 
L 375.938733 163.834774 
L 377.366513 164.218859 
L 378.794293 167.792478 
L 380.222074 174.635547 
L 381.649854 176.690264 
L 383.077634 177.083654 
L 384.505414 176.561619 
L 385.933194 175.099321 
L 387.360974 174.771143 
L 388.788754 174.172491 
L 390.216534 171.162515 
L 391.644314 172.080358 
L 393.072094 171.076006 
L 394.499875 167.428281 
L 395.927655 164.67978 
L 397.355435 165.121002 
L 398.783215 164.221697 
L 401.638775 164.641262 
L 403.066555 164.109239 
L 404.494335 167.201656 
L 405.922115 166.63592 
L 407.349895 165.490454 
L 408.777676 166.89904 
L 410.205456 164.706742 
L 411.633236 164.03001 
L 413.061016 167.125987 
L 414.488796 166.349169 
L 415.916576 166.666006 
L 417.344356 164.282126 
L 418.772136 165.33448 
L 420.199916 168.247328 
L 421.627696 168.360386 
L 423.055477 166.630841 
L 424.483257 168.658396 
L 425.911037 165.66413 
L 427.338817 170.300588 
L 428.766597 170.581215 
L 430.194377 169.653924 
L 431.622157 169.541617 
L 434.477717 170.880977 
L 435.905497 171.957627 
L 437.333278 170.492596 
L 438.761058 173.961503 
L 440.188838 172.445385 
L 441.616618 172.430807 
L 443.044398 173.369953 
L 444.472178 170.843541 
L 445.899958 168.616821 
L 447.327738 165.151069 
L 448.755518 163.211046 
L 450.183298 166.251531 
L 451.611079 167.959898 
L 453.038859 168.508397 
L 454.466639 170.434801 
L 455.894419 170.396256 
L 457.322199 172.252226 
L 458.749979 177.492971 
L 460.177759 176.227444 
L 461.605539 174.046357 
L 463.033319 175.3285 
L 464.461099 175.930681 
L 465.88888 177.922436 
L 467.31666 177.182648 
L 468.74444 181.531796 
L 470.17222 181.96 
L 471.6 181.281992 
L 471.6 181.281992 
" clip-path="url(#p7037dc7d77)" style="fill: none; stroke: #32cd32; stroke-width: 3; stroke-linecap: square"/>
   </g>
   <g id="patch_3">
    <path d="M 44.69375 181.96 
L 44.69375 26.2275 
" style="fill: none; stroke: #000000; stroke-width: 0.8; stroke-linejoin: miter; stroke-linecap: square"/>
   </g>
   <g id="patch_4">
    <path d="M 471.6 181.96 
L 471.6 26.2275 
" style="fill: none; stroke: #000000; stroke-width: 0.8; stroke-linejoin: miter; stroke-linecap: square"/>
   </g>
   <g id="patch_5">
    <path d="M 44.69375 181.96 
L 471.6 181.96 
" style="fill: none; stroke: #000000; stroke-width: 0.8; stroke-linejoin: miter; stroke-linecap: square"/>
   </g>
   <g id="patch_6">
    <path d="M 44.69375 26.2275 
L 471.6 26.2275 
" style="fill: none; stroke: #000000; stroke-width: 0.8; stroke-linejoin: miter; stroke-linecap: square"/>
   </g>
   <g id="text_15">
    <!-- Средняя площадь области кальциевого события в зависимости от времени -->
    <g transform="translate(16.931875 20.2275) scale(0.12 -0.12)">
     <defs>
      <path id="DejaVuSans-446" d="M 3603 0 
L 581 0 
L 581 3500 
L 1159 3500 
L 1159 459 
L 3025 459 
L 3025 3500 
L 3603 3500 
L 3603 459 
L 4063 459 
L 4063 -884 
L 3603 -884 
L 3603 0 
z
" transform="scale(0.015625)"/>
      <path id="DejaVuSans-432" d="M 1156 1613 
L 1156 459 
L 1975 459 
Q 2369 459 2575 607 
Q 2781 756 2781 1038 
Q 2781 1319 2575 1466 
Q 2369 1613 1975 1613 
L 1156 1613 
z
M 1156 3041 
L 1156 2072 
L 1913 2072 
Q 2238 2072 2444 2201 
Q 2650 2331 2650 2563 
Q 2650 2794 2444 2917 
Q 2238 3041 1913 3041 
L 1156 3041 
z
M 581 3500 
L 1950 3500 
Q 2566 3500 2897 3275 
Q 3228 3050 3228 2634 
Q 3228 2313 3059 2123 
Q 2891 1934 2559 1888 
Q 2956 1813 3175 1575 
Q 3394 1338 3394 981 
Q 3394 513 3033 256 
Q 2672 0 2003 0 
L 581 0 
L 581 3500 
z
" transform="scale(0.015625)"/>
      <path id="DejaVuSans-433" d="M 581 0 
L 581 3500 
L 3050 3500 
L 3050 3041 
L 1159 3041 
L 1159 0 
L 581 0 
z
" transform="scale(0.015625)"/>
      <path id="DejaVuSans-44b" d="M 3907 3500 
L 4482 3500 
L 4482 0 
L 3907 0 
L 3907 3500 
z
M 4195 3584 
L 4195 3584 
z
M 2781 1038 
Q 2781 1319 2576 1466 
Q 2372 1613 1978 1613 
L 1159 1613 
L 1159 459 
L 1978 459 
Q 2372 459 2576 607 
Q 2781 756 2781 1038 
z
M 581 3500 
L 1159 3500 
L 1159 2072 
L 2003 2072 
Q 2672 2072 3033 1817 
Q 3394 1563 3394 1038 
Q 3394 513 3033 256 
Q 2672 0 2003 0 
L 581 0 
L 581 3500 
z
" transform="scale(0.015625)"/>
      <path id="DejaVuSans-437" d="M 2206 1888 
Q 2594 1813 2809 1584 
Q 3025 1356 3025 1019 
Q 3025 478 2622 193 
Q 2219 -91 1475 -91 
Q 1225 -91 961 -47 
Q 697 -3 416 84 
L 416 619 
Q 638 503 903 445 
Q 1169 388 1459 388 
Q 1931 388 2195 563 
Q 2459 738 2459 1019 
Q 2459 1294 2225 1461 
Q 1991 1628 1563 1628 
L 1100 1628 
L 1100 2103 
L 1584 2103 
Q 1947 2103 2158 2242 
Q 2369 2381 2369 2600 
Q 2369 2800 2151 2944 
Q 1934 3088 1563 3088 
Q 1341 3088 1089 3047 
Q 838 3006 534 2916 
L 534 3438 
Q 841 3513 1106 3550 
Q 1372 3588 1609 3588 
Q 2222 3588 2576 3342 
Q 2931 3097 2931 2656 
Q 2931 2366 2743 2164 
Q 2556 1963 2206 1888 
z
" transform="scale(0.015625)"/>
     </defs>
     <use xlink:href="#DejaVuSans-421"/>
     <use xlink:href="#DejaVuSans-440" x="69.824219"/>
     <use xlink:href="#DejaVuSans-435" x="133.300781"/>
     <use xlink:href="#DejaVuSans-434" x="194.824219"/>
     <use xlink:href="#DejaVuSans-43d" x="263.964844"/>
     <use xlink:href="#DejaVuSans-44f" x="329.345703"/>
     <use xlink:href="#DejaVuSans-44f" x="389.501953"/>
     <use xlink:href="#DejaVuSans-20" x="449.658203"/>
     <use xlink:href="#DejaVuSans-43f" x="481.445312"/>
     <use xlink:href="#DejaVuSans-43b" x="546.826172"/>
     <use xlink:href="#DejaVuSans-43e" x="610.742188"/>
     <use xlink:href="#DejaVuSans-449" x="671.923828"/>
     <use xlink:href="#DejaVuSans-430" x="766.113281"/>
     <use xlink:href="#DejaVuSans-434" x="827.392578"/>
     <use xlink:href="#DejaVuSans-44c" x="896.533203"/>
     <use xlink:href="#DejaVuSans-20" x="955.46875"/>
     <use xlink:href="#DejaVuSans-43e" x="987.255859"/>
     <use xlink:href="#DejaVuSans-431" x="1048.4375"/>
     <use xlink:href="#DejaVuSans-43b" x="1110.107422"/>
     <use xlink:href="#DejaVuSans-430" x="1174.023438"/>
     <use xlink:href="#DejaVuSans-441" x="1235.302734"/>
     <use xlink:href="#DejaVuSans-442" x="1290.283203"/>
     <use xlink:href="#DejaVuSans-438" x="1348.535156"/>
     <use xlink:href="#DejaVuSans-20" x="1413.525391"/>
     <use xlink:href="#DejaVuSans-43a" x="1445.3125"/>
     <use xlink:href="#DejaVuSans-430" x="1505.712891"/>
     <use xlink:href="#DejaVuSans-43b" x="1566.992188"/>
     <use xlink:href="#DejaVuSans-44c" x="1630.908203"/>
     <use xlink:href="#DejaVuSans-446" x="1689.84375"/>
     <use xlink:href="#DejaVuSans-438" x="1757.910156"/>
     <use xlink:href="#DejaVuSans-435" x="1822.900391"/>
     <use xlink:href="#DejaVuSans-432" x="1884.423828"/>
     <use xlink:href="#DejaVuSans-43e" x="1943.359375"/>
     <use xlink:href="#DejaVuSans-433" x="2004.541016"/>
     <use xlink:href="#DejaVuSans-43e" x="2057.080078"/>
     <use xlink:href="#DejaVuSans-20" x="2118.261719"/>
     <use xlink:href="#DejaVuSans-441" x="2150.048828"/>
     <use xlink:href="#DejaVuSans-43e" x="2205.029297"/>
     <use xlink:href="#DejaVuSans-431" x="2266.210938"/>
     <use xlink:href="#DejaVuSans-44b" x="2327.880859"/>
     <use xlink:href="#DejaVuSans-442" x="2406.835938"/>
     <use xlink:href="#DejaVuSans-438" x="2465.087891"/>
     <use xlink:href="#DejaVuSans-44f" x="2530.078125"/>
     <use xlink:href="#DejaVuSans-20" x="2590.234375"/>
     <use xlink:href="#DejaVuSans-432" x="2622.021484"/>
     <use xlink:href="#DejaVuSans-20" x="2680.957031"/>
     <use xlink:href="#DejaVuSans-437" x="2712.744141"/>
     <use xlink:href="#DejaVuSans-430" x="2765.917969"/>
     <use xlink:href="#DejaVuSans-432" x="2827.197266"/>
     <use xlink:href="#DejaVuSans-438" x="2886.132812"/>
     <use xlink:href="#DejaVuSans-441" x="2951.123047"/>
     <use xlink:href="#DejaVuSans-438" x="3006.103516"/>
     <use xlink:href="#DejaVuSans-43c" x="3071.09375"/>
     <use xlink:href="#DejaVuSans-43e" x="3146.533203"/>
     <use xlink:href="#DejaVuSans-441" x="3207.714844"/>
     <use xlink:href="#DejaVuSans-442" x="3262.695312"/>
     <use xlink:href="#DejaVuSans-438" x="3320.947266"/>
     <use xlink:href="#DejaVuSans-20" x="3385.9375"/>
     <use xlink:href="#DejaVuSans-43e" x="3417.724609"/>
     <use xlink:href="#DejaVuSans-442" x="3478.90625"/>
     <use xlink:href="#DejaVuSans-20" x="3537.158203"/>
     <use xlink:href="#DejaVuSans-432" x="3568.945312"/>
     <use xlink:href="#DejaVuSans-440" x="3627.880859"/>
     <use xlink:href="#DejaVuSans-435" x="3691.357422"/>
     <use xlink:href="#DejaVuSans-43c" x="3752.880859"/>
     <use xlink:href="#DejaVuSans-435" x="3828.320312"/>
     <use xlink:href="#DejaVuSans-43d" x="3889.84375"/>
     <use xlink:href="#DejaVuSans-438" x="3955.224609"/>
    </g>
   </g>
   <g id="legend_1">
    <g id="patch_7">
     <path d="M 460.6 39.2275 
L 464.6 39.2275 
Q 466.6 39.2275 466.6 37.2275 
L 466.6 33.2275 
Q 466.6 31.2275 464.6 31.2275 
L 460.6 31.2275 
Q 458.6 31.2275 458.6 33.2275 
L 458.6 37.2275 
Q 458.6 39.2275 460.6 39.2275 
z
" style="fill: #ffffff; opacity: 0.8; stroke: #cccccc; stroke-linejoin: miter"/>
    </g>
   </g>
  </g>
 </g>
 <defs>
  <clipPath id="p7037dc7d77">
   <rect x="44.69375" y="26.2275" width="426.90625" height="155.7325"/>
  </clipPath>
 </defs>
</svg>
